<svg xmlns="http://www.w3.org/2000/svg" width="1200" height="800" viewBox="0 0 1200 800">
  <defs>
    <linearGradient id="g2" x1="0" y1="0" x2="1" y2="1">
      <stop offset="0%" stop-color="#ff6b35"/>
      <stop offset="100%" stop-color="#ff9b5c"/>
    </linearGradient>
  </defs>
  <rect width="1200" height="800" rx="40" fill="#fff7f0"/>
  <rect x="190" y="180" width="820" height="460" rx="32" fill="url(#g2)" opacity="0.12"/>
  <rect x="250" y="240" width="700" height="420" rx="30" fill="#ffffff"/>
  <rect x="340" y="300" width="120" height="260" rx="20" fill="#ffe1cf"/>
  <rect x="500" y="280" width="120" height="300" rx="20" fill="#ffd1b0"/>
  <rect x="660" y="320" width="120" height="260" rx="20" fill="#ffb88c"/>
  <rect x="340" y="340" width="120" height="30" rx="10" fill="#ff9b5c"/>
  <rect x="500" y="320" width="120" height="30" rx="10" fill="#ff9b5c"/>
  <rect x="660" y="360" width="120" height="30" rx="10" fill="#ff9b5c"/>
  <rect x="420" y="560" width="380" height="35" rx="15" fill="#ffd6c0"/>
  <circle cx="320" cy="520" r="70" fill="#fff0e6"/>
  <path d="M300 505L340 505L350 580L290 580Z" fill="#ff6b35"/>
  <rect x="280" y="380" width="80" height="120" rx="18" fill="#ff9b5c"/>
  <text x="280" y="170" font-family="Poppins,sans-serif" font-size="32" fill="#b33f10">Condo Care</text>
</svg>
