<svg xmlns="http://www.w3.org/2000/svg" width="1200" height="800" viewBox="0 0 1200 800">
  <defs>
    <linearGradient id="g1" x1="0" y1="0" x2="1" y2="1">
      <stop offset="0%" stop-color="#0066cc"/>
      <stop offset="100%" stop-color="#00aaff"/>
    </linearGradient>
  </defs>
  <rect width="1200" height="800" rx="40" fill="#f3f7ff"/>
  <rect x="180" y="160" width="860" height="480" rx="32" fill="url(#g1)" opacity="0.14"/>
  <rect x="220" y="220" width="760" height="350" rx="24" fill="#ffffff"/>
  <circle cx="320" cy="320" r="70" fill="#e3efff"/>
  <rect x="400" y="240" width="340" height="40" rx="20" fill="#cfe4ff"/>
  <rect x="400" y="310" width="520" height="40" rx="20" fill="#cfe4ff"/>
  <rect x="400" y="380" width="280" height="40" rx="20" fill="#cfe4ff"/>
  <rect x="220" y="600" width="760" height="40" rx="20" fill="#e6f0ff"/>
  <g fill="#0077dd">
    <circle cx="320" cy="320" r="12"/>
    <circle cx="360" cy="320" r="12"/>
    <circle cx="320" cy="360" r="12"/>
  </g>
  <path d="M290 510C290 475 320 445 355 445H620C655 445 685 475 685 510V580H290V510Z" fill="#00a4ff" opacity="0.72"/>
  <path d="M450 360H480L520 540H480L450 360Z" fill="#0066cc"/>
  <path d="M530 410H560L590 540H560L530 410Z" fill="#0d79d8"/>
  <rect x="220" y="120" width="240" height="60" rx="15" fill="#ffffff" opacity="0.9"/>
  <text x="240" y="160" font-family="Poppins,sans-serif" font-size="32" fill="#004999">Corporate Clean</text>
</svg>
