<svg xmlns="http://www.w3.org/2000/svg" width="1200" height="800" viewBox="0 0 1200 800">
  <defs>
    <linearGradient id="g3" x1="0" y1="0" x2="1" y2="1">
      <stop offset="0%" stop-color="#1a1a2e"/>
      <stop offset="100%" stop-color="#4a61d1"/>
    </linearGradient>
  </defs>
  <rect width="1200" height="800" rx="40" fill="#eef2ff"/>
  <rect x="200" y="180" width="800" height="430" rx="32" fill="url(#g3)" opacity="0.16"/>
  <path d="M320 470C320 420 360 380 410 380C460 380 500 420 500 470C500 520 460 560 410 560C360 560 320 520 320 470Z" fill="#ffffff"/>
  <path d="M590 430C590 395 620 370 655 370C690 370 720 395 720 430C720 465 690 490 655 490C620 490 590 465 590 430Z" fill="#ffffff"/>
  <path d="M820 470C820 435 850 410 885 410C920 410 950 435 950 470C950 505 920 530 885 530C850 530 820 505 820 470Z" fill="#ffffff"/>
  <rect x="370" y="560" width="80" height="170" rx="20" fill="#4a61d1"/>
  <rect x="640" y="520" width="80" height="210" rx="20" fill="#2a2c5d"/>
  <rect x="820" y="560" width="80" height="170" rx="20" fill="#26306a"/>
  <rect x="380" y="560" width="400" height="35" rx="18" fill="#c5cbff"/>
  <text x="340" y="160" font-family="Poppins,sans-serif" font-size="34" fill="#1f2d5b">Team Pride</text>
</svg>
